<?xml version="1.0" encoding="UTF-8"?>
<svg id="Layer_1" xmlns="http://www.w3.org/2000/svg" version="1.1" viewBox="0 0 476 95">
  <!-- Generator: Adobe Illustrator 29.6.1, SVG Export Plug-In . SVG Version: 2.1.1 Build 9)  -->
  <defs>
    <style>
      .st0 {
        fill: #003d4f;
      }

      .st1 {
        fill: #f2617a;
      }
    </style>
  </defs>
  <polygon class="st1" points="40.33 11.95 10.24 71 24.22 71 54.31 11.95 40.33 11.95"/>
  <path class="st0" d="M213.47,35.58l-2.41,4.72h-.15c-1-1.88-2.54-3.43-4.42-4.42-1.9-.88-3.98-1.3-6.08-1.25-2.26-.05-4.5.45-6.53,1.44-1.86.92-3.48,2.24-4.77,3.87-1.31,1.67-2.3,3.58-2.91,5.62-.67,2.15-1,4.38-1,6.63,0,2.31.26,4.61.83,6.85.52,2.05,1.44,3.99,2.71,5.68,1.25,1.64,2.87,2.95,4.72,3.84,2.15.99,4.49,1.47,6.85,1.4,2.12.01,4.21-.45,6.12-1.34,1.91-.85,3.49-2.31,4.49-4.15h.13v4.67c0,5.53-2.59,8.69-7.74,8.69s-7.9-2.21-9.35-4.02l-3.52,6.95s3.98,3.58,11.51,3.58c12.48,0,18.34-6.07,18.34-15.62v-33.17l-6.84.02h.02ZM210.55,56.51c-.33,1.12-.85,2.18-1.55,3.12-.69.92-1.58,1.68-2.6,2.21-1.12.56-2.37.84-3.63.82-1.32.05-2.63-.28-3.77-.96-.99-.62-1.82-1.46-2.43-2.46-.63-1.04-1.07-2.19-1.29-3.38-.26-1.25-.38-2.52-.39-3.8,0-1.28.15-2.56.45-3.8.27-1.15.76-2.24,1.44-3.22.65-.91,1.49-1.67,2.46-2.21,1.09-.57,2.3-.86,3.53-.82,1.38-.05,2.74.25,3.97.88,1.02.57,1.88,1.38,2.51,2.37.66,1.06,1.13,2.23,1.37,3.46.28,1.36.42,2.75.41,4.13.02,1.24-.15,2.48-.48,3.67h0Z"/>
  <path class="st0" d="M83.81,22.1v18.42h.21c1.1-1.93,2.74-3.49,4.72-4.48,1.74-.89,3.65-1.37,5.61-1.4,2.19-.06,4.37.32,6.41,1.11,1.54.62,2.9,1.64,3.94,2.94,1,1.36,1.68,2.93,2.01,4.59.41,1.97.6,3.98.59,5.99v21.78h-9.71v-20.04c.15-2.26-.32-4.52-1.37-6.53-.91-1.45-2.53-2.21-4.85-2.21-2.65,0-4.57.8-5.76,2.37s-1.78,4.17-1.78,7.74v18.64h-9.73V22.09h9.72,0Z"/>
  <path class="st0" d="M111.37,45.62c.8-2.21,2.06-4.21,3.69-5.89,1.64-1.64,3.59-2.92,5.75-3.77,4.88-1.77,10.22-1.77,15.1,0,4.43,1.67,7.9,5.2,9.49,9.66.9,2.48,1.34,5.1,1.3,7.74.03,2.62-.41,5.22-1.3,7.67-.81,2.18-2.07,4.18-3.69,5.85-1.65,1.62-3.62,2.87-5.79,3.66-4.89,1.73-10.23,1.73-15.12,0-2.16-.82-4.12-2.1-5.75-3.74-1.63-1.67-2.89-3.66-3.69-5.85-.9-2.46-1.34-5.06-1.3-7.67-.03-2.61.42-5.21,1.32-7.66h-.01ZM120.22,57.46c.24,1.29.72,2.52,1.4,3.64.65,1.06,1.55,1.95,2.63,2.57,1.26.68,2.68,1.01,4.11.96,1.44.05,2.86-.28,4.13-.96,1.1-.61,2.02-1.49,2.68-2.57.68-1.12,1.15-2.35,1.4-3.64.28-1.36.41-2.75.41-4.13s-.13-2.8-.41-4.18c-.24-1.29-.72-2.52-1.4-3.64-.67-1.07-1.59-1.97-2.69-2.61-1.26-.69-2.69-1.03-4.13-.98-2.73-.15-5.32,1.22-6.74,3.55-.69,1.12-1.16,2.35-1.4,3.64-.28,1.38-.42,2.78-.42,4.18s.14,2.8.42,4.18h.01Z"/>
  <path class="st0" d="M173.24,71v-4.88h-.2c-1.11,1.93-2.79,3.47-4.8,4.42-1.88.89-3.94,1.35-6.03,1.36-2.18.07-4.35-.28-6.4-1.02-1.55-.6-2.91-1.61-3.94-2.92-1.01-1.36-1.7-2.93-2.02-4.59-.4-1.97-.6-3.98-.59-5.99v-21.8h9.73v20c-.15,2.27.32,4.53,1.37,6.55.91,1.44,2.53,2.17,4.87,2.21,2.65,0,4.56-.79,5.75-2.37,1.18-1.57,1.78-4.17,1.78-7.74v-18.65h9.72v35.38l-9.24.04h0Z"/>
  <path class="st0" d="M233.66,22.1v18.42h.2c1.1-1.93,2.75-3.48,4.73-4.48,1.74-.89,3.65-1.37,5.61-1.4,2.19-.06,4.37.32,6.41,1.11,1.55.6,2.92,1.6,3.97,2.9,1,1.37,1.69,2.93,2.02,4.59.4,1.97.6,3.98.58,5.99v21.78h-9.72v-20c.15-2.26-.33-4.52-1.37-6.53-.91-1.47-2.54-2.21-4.86-2.21-2.65,0-4.57.8-5.75,2.37s-1.78,4.17-1.78,7.74v18.64h-9.73V22.1h9.69Z"/>
  <path class="st0" d="M331.38,45.62c1.6-4.44,5.04-7.97,9.44-9.66,4.88-1.77,10.23-1.77,15.1,0,4.42,1.68,7.89,5.21,9.49,9.66.9,2.48,1.34,5.1,1.3,7.74.03,2.62-.41,5.22-1.3,7.67-.81,2.19-2.07,4.18-3.7,5.85-1.64,1.62-3.61,2.87-5.77,3.66-4.89,1.73-10.23,1.73-15.11,0-2.16-.82-4.12-2.1-5.75-3.74-1.63-1.67-2.89-3.66-3.7-5.85-.89-2.46-1.33-5.06-1.29-7.67-.03-2.61.41-5.21,1.3-7.66h0ZM340.22,57.46c.25,1.29.73,2.52,1.4,3.64.65,1.06,1.56,1.94,2.64,2.57,1.26.68,2.68,1.01,4.11.96,1.44.05,2.86-.28,4.13-.96,1.1-.62,2.02-1.5,2.68-2.57.68-1.12,1.15-2.35,1.4-3.64.28-1.36.41-2.75.41-4.13s-.13-2.8-.41-4.18c-.24-1.29-.72-2.52-1.4-3.64-.67-1.07-1.6-1.97-2.69-2.61-1.27-.69-2.69-1.03-4.14-.98-1.43-.05-2.86.29-4.11.98-1.07.64-1.97,1.52-2.64,2.57-.69,1.12-1.16,2.35-1.4,3.64-.27,1.38-.41,2.78-.41,4.18s.14,2.8.41,4.18h.02Z"/>
  <polygon class="st0" points="406.86 22.1 406.86 48.33 419.11 35.58 430.62 35.58 417.26 48.6 432.13 71 420.35 71 410.63 55.18 406.86 58.8 406.86 70.96 397.13 70.96 397.13 22.1 406.86 22.1"/>
  <path class="st0" d="M439.32,62.2c.41.73.98,1.36,1.67,1.85.72.51,1.52.88,2.37,1.11.91.23,1.84.35,2.77.34.73,0,1.45-.08,2.16-.24.72-.14,1.41-.4,2.06-.75.61-.33,1.14-.8,1.54-1.37.44-.65.66-1.43.62-2.21,0-1.46-.97-2.55-2.91-3.32-2.65-.93-5.36-1.67-8.12-2.21-1.41-.32-2.8-.7-4.15-1.11-1.29-.38-2.51-.94-3.64-1.67-1.03-.69-1.9-1.6-2.53-2.68-.67-1.2-1.01-2.56-.96-3.94-.08-1.96.38-3.9,1.34-5.62.86-1.43,2.07-2.63,3.53-3.46,1.55-.87,3.23-1.46,4.98-1.76,1.85-.34,3.73-.51,5.61-.51s3.74.18,5.58.54c1.71.33,3.34.96,4.83,1.86,1.42.87,2.63,2.05,3.53,3.45,1,1.65,1.58,3.52,1.68,5.45h-9.24c.04-1.56-.77-3.02-2.12-3.8-1.4-.69-2.96-1.03-4.52-1-.6,0-1.19.04-1.78.1-.6.06-1.19.22-1.75.45-.52.22-.98.56-1.34,1-.39.49-.58,1.11-.54,1.74-.03.82.32,1.6.95,2.12.74.6,1.59,1.06,2.5,1.34,1.16.38,2.33.69,3.53.93,1.33.28,2.67.58,4.05.9,1.4.31,2.78.7,4.14,1.16,1.28.42,2.49,1.03,3.59,1.81,1.04.74,1.91,1.7,2.54,2.81.68,1.27,1.01,2.7.96,4.15.19,3.9-1.76,7.6-5.08,9.65-1.58.99-3.33,1.68-5.16,2.02-1.95.39-3.94.58-5.93.58s-4.04-.2-6.03-.61c-1.86-.37-3.63-1.08-5.24-2.08-3.38-2.07-5.42-5.77-5.37-9.73h9.24c-.03.95.2,1.88.66,2.71h-.02Z"/>
  <path class="st0" d="M277.72,63.73c-1.17.14-2.35-.15-3.32-.82-.67-.97-.96-2.15-.82-3.32v-17.5h5.43l3.32-6.51h-8.73v-10.61h-9.73v10.61h-4.86l-3.32,6.5h8.17v20.9c-.06,1.49.24,2.97.89,4.31.55,1.06,1.4,1.94,2.43,2.54,1.1.61,2.31,1.02,3.56,1.19,1.42.21,2.85.32,4.28.31.96,0,1.93,0,2.94-.07.92-.04,1.83-.13,2.74-.28v-7.54c-.48.1-.95.17-1.44.21-.48.04-1,.06-1.55.06v.02Z"/>
  <path class="st0" d="M68.03,63.73c-1.17.14-2.35-.15-3.32-.82-.67-.97-.96-2.15-.82-3.32v-17.5h5.01l3.32-6.51h-8.3v-10.61h-9.72v10.61h-4.88l-3.32,6.5h8.18v20.9c-.07,1.49.24,2.97.88,4.31.56,1.06,1.4,1.94,2.43,2.54,1.11.61,2.33,1.02,3.59,1.19,1.42.21,2.85.32,4.28.31.96,0,1.95,0,2.94-.07.92-.04,1.83-.13,2.73-.28v-7.54c-.47.1-.95.17-1.44.21-.51.04-1.04.06-1.58.06l.02.02Z"/>
  <path class="st0" d="M389.55,34.63c-8.17,0-11.3,7.53-11.3,7.53h-.13v-6.58h-9.24v35.38h9.72v-14.79c0-8.62,1.68-12.47,9.03-12.47,1.32-.02,2.63.29,3.8.91l4.17-8.18c-1.8-1.18-3.9-1.8-6.05-1.79h0Z"/>
  <polygon class="st0" points="321.91 35.6 315.4 59.55 315.27 59.55 309.24 35.6 299.79 35.6 293.9 59.63 293.77 59.63 287.27 35.6 280.93 48.01 288.23 71 298.29 71 304.31 47.23 304.45 47.23 310.75 71 320.75 71 331.91 35.6 321.91 35.6"/>
</svg>